{
	"buffers":[{
		"uri":"data:application/octet-stream;base64,",
		"byteLength":128520
	},
	{
		"uri":"data:application/octet-stream;base64,",
		"byteLength":437376
	},
	{
		"uri":"data:application/octet-stream;base64,",
		"byteLength":230928
	},
	{
		"uri":"data:application/octet-stream;base64,",
		"byteLength":80
	}],
	"asset":{
		"version":"2.0",
		"generator":"Maxon Cinema 4D 2024.5.1 (#200000219)"
	},
	"scenes":[{
		"nodes":[0]
	}],
	"nodes":[{
		"name":"Null.1",
		"translation":[0.2507091462612152,
		1.5129804611206055,
		0.1126391589641571],
		"rotation":[0.0,
		0.0,
		0.0,
		-1.0],
		"scale":[1.0,
		1.0,
		1.0],
		"children":[1,
		2,
		3]
	},
	{
		"name":"pain_2",
		"mesh":0,
		"translation":[-1.2315053939819337,
		-0.06742033362388611,
		-1.776356799695581e-17],
		"rotation":[0.0,
		0.0,
		0.0,
		-1.0],
		"scale":[1.0,
		1.0,
		1.0]
	},
	{
		"name":"mount",
		"mesh":1,
		"translation":[0.6211394667625427,
		-0.018283646553754808,
		-7.105427198782324e-17],
		"rotation":[0.0,
		0.0,
		0.0,
		-1.0],
		"scale":[1.0,
		1.0,
		1.0]
	},
	{
		"name":"charkhesh_animate",
		"mesh":2,
		"translation":[0.6103659272193909,
		0.08570398390293122,
		8.88178432935015e-17],
		"rotation":[1.1354726797361133e-16,
		-4.5876075355623808e-17,
		0.37460657954216006,
		0.9271838665008545],
		"scale":[1.0,
		1.0,
		1.0]
	}],
	"meshes":[{
		"name":"pain_2",
		"primitives":[{
			"attributes":{
				"POSITION":1,
				"NORMAL":2,
				"TEXCOORD_0":3
			},
			"indices":0,
			"material":0
		}]
	},
	{
		"name":"mount",
		"primitives":[{
			"attributes":{
				"POSITION":5,
				"NORMAL":6,
				"TEXCOORD_0":7
			},
			"indices":4,
			"material":0
		}]
	},
	{
		"name":"charkhesh_animate",
		"primitives":[{
			"attributes":{
				"POSITION":9,
				"NORMAL":10,
				"TEXCOORD_0":11
			},
			"indices":8,
			"material":0
		}]
	}],
	"accessors":[{
		"bufferView":0,
		"type":"SCALAR",
		"min":[0],
		"componentType":5123,
		"count":3780,
		"byteOffset":0,
		"max":[3779]
	},
	{
		"bufferView":1,
		"type":"VEC3",
		"min":[0.0,
		-1.4102041721343995,
		-0.1126391589641571],
		"componentType":5126,
		"count":3780,
		"byteOffset":0,
		"max":[1.9703247547149659,
		0.0,
		0.1126391589641571]
	},
	{
		"bufferView":1,
		"type":"VEC3",
		"min":[-1.0,
		-0.9961618781089783,
		-0.9984596371650696],
		"componentType":5126,
		"count":3780,
		"byteOffset":12,
		"max":[1.0,
		0.9979618787765503,
		0.9984596371650696]
	},
	{
		"bufferView":1,
		"type":"VEC2",
		"min":[0.00390625,
		0.018339049071073533],
		"componentType":5126,
		"count":3780,
		"byteOffset":24,
		"max":[0.979862630367279,
		0.99609375]
	},
	{
		"bufferView":2,
		"type":"SCALAR",
		"min":[0],
		"componentType":5123,
		"count":12864,
		"byteOffset":0,
		"max":[12863]
	},
	{
		"bufferView":3,
		"type":"VEC3",
		"min":[-0.28353941440582278,
		-0.19302986562252046,
		-0.17802071571350099],
		"componentType":5126,
		"count":12864,
		"byteOffset":0,
		"max":[0.06344126909971237,
		0.19302986562252046,
		0.17802071571350099]
	},
	{
		"bufferView":3,
		"type":"VEC3",
		"min":[-0.9954385757446289,
		-0.9967444539070129,
		-1.0],
		"componentType":5126,
		"count":12864,
		"byteOffset":12,
		"max":[0.9955634474754334,
		0.9950597286224365,
		1.0]
	},
	{
		"bufferView":3,
		"type":"VEC2",
		"min":[0.00390625,
		0.6441794633865356],
		"componentType":5126,
		"count":12864,
		"byteOffset":24,
		"max":[0.9453055262565613,
		0.99609375]
	},
	{
		"bufferView":4,
		"type":"SCALAR",
		"min":[0],
		"componentType":5123,
		"count":6792,
		"byteOffset":0,
		"max":[6791]
	},
	{
		"bufferView":5,
		"type":"VEC3",
		"min":[-1.389358639717102,
		-0.12537293136119843,
		-0.17802071571350099],
		"componentType":5126,
		"count":6792,
		"byteOffset":0,
		"max":[0.17581303417682649,
		1.3903014659881592,
		0.17802071571350099]
	},
	{
		"bufferView":5,
		"type":"VEC3",
		"min":[-0.9980950951576233,
		-0.9947968125343323,
		-1.0],
		"componentType":5126,
		"count":6792,
		"byteOffset":12,
		"max":[0.9980950951576233,
		0.9980950951576233,
		1.0]
	},
	{
		"bufferView":5,
		"type":"VEC2",
		"min":[0.00390625,
		0.10742732882499695],
		"componentType":5126,
		"count":6792,
		"byteOffset":24,
		"max":[0.9371634125709534,
		0.99609375]
	},
	{
		"bufferView":6,
		"type":"SCALAR",
		"min":[0.0],
		"componentType":5126,
		"count":4,
		"byteOffset":0,
		"max":[1.0]
	},
	{
		"bufferView":6,
		"type":"VEC4",
		"min":[-1.224227174229583e-16,
		-3.2057516988390597e-18,
		-0.37460657954216006,
		-0.9996573328971863],
		"componentType":5126,
		"count":4,
		"byteOffset":16,
		"max":[-1.1354726797361133e-16,
		4.5876075355623808e-17,
		0.026176948100328447,
		-0.9271838665008545]
	}],
	"bufferViews":[{
		"buffer":0,
		"byteOffset":0,
		"byteLength":7560,
		"target":34963
	},
	{
		"buffer":0,
		"byteOffset":7560,
		"byteLength":120960,
		"target":34962,
		"byteStride":32
	},
	{
		"buffer":1,
		"byteOffset":0,
		"byteLength":25728,
		"target":34963
	},
	{
		"buffer":1,
		"byteOffset":25728,
		"byteLength":411648,
		"target":34962,
		"byteStride":32
	},
	{
		"buffer":2,
		"byteOffset":0,
		"byteLength":13584,
		"target":34963
	},
	{
		"buffer":2,
		"byteOffset":13584,
		"byteLength":217344,
		"target":34962,
		"byteStride":32
	},
	{
		"buffer":3,
		"byteOffset":0,
		"byteLength":80
	}],
	"images":[{
		"uri":"data:image/png;base64,"
	}],
	"samplers":[{
		"magFilter":9729,
		"minFilter":9729,
		"wrapS":10497,
		"wrapT":10497
	}],
	"textures":[{
		"sampler":0,
		"source":0
	}],
	"materials":[{
		"pbrMetallicRoughness":{
			"baseColorTexture":{
				"index":0
			},
			"baseColorFactor":[1.0,
			1.0,
			1.0,
			1.0],
			"metallicFactor":1.0,
			"roughnessFactor":1.0
		},
		"emissiveFactor":[0.0,
		0.0,
		0.0],
		"doubleSided":false,
		"alphaMode":"OPAQUE",
		"name":"Mat"
	}],
	"animations":[{
		"samplers":[{
			"input":12,
			"interpolation":"LINEAR",
			"output":13
		}],
		"channels":[{
			"sampler":0,
			"target":{
				"node":3,
				"path":"rotation"
			}
		}]
	}]
}