{
	"accessors":[{
		"bufferView":0,
		"type":"SCALAR",
		"componentType":5123,
		"count":7968,
		"byteOffset":0,
		"min":[0],
		"max":[7967]
	},
	{
		"bufferView":1,
		"type":"VEC3",
		"componentType":5126,
		"count":7968,
		"byteOffset":0,
		"min":[-0.1335785835981369,
		-0.4999784231185913,
		-0.4999784231185913],
		"max":[0.1335785835981369,
		0.4999784231185913,
		0.4999784231185913]
	},
	{
		"bufferView":1,
		"type":"VEC3",
		"componentType":5126,
		"count":7968,
		"byteOffset":12,
		"min":[-1.0,
		-0.9999570250511169,
		-0.9999570250511169],
		"max":[1.0,
		0.9999570250511169,
		0.9999570250511169]
	},
	{
		"bufferView":1,
		"type":"VEC2",
		"componentType":5126,
		"count":7968,
		"byteOffset":24,
		"min":[0.0,
		0.0],
		"max":[1.0,
		1.0]
	},
	{
		"bufferView":2,
		"type":"SCALAR",
		"componentType":5123,
		"count":4812,
		"byteOffset":0,
		"min":[0],
		"max":[4811]
	},
	{
		"bufferView":3,
		"type":"VEC3",
		"componentType":5126,
		"count":4812,
		"byteOffset":0,
		"min":[-0.08715692162513733,
		-1.0982462167739869,
		4.809914588928223],
		"max":[0.08715692162513733,
		0.007152733393013477,
		8.300000190734864]
	},
	{
		"bufferView":3,
		"type":"VEC3",
		"componentType":5126,
		"count":4812,
		"byteOffset":12,
		"min":[-1.0,
		-1.0,
		-0.9999628663063049],
		"max":[1.0,
		1.0,
		1.0]
	},
	{
		"bufferView":3,
		"type":"VEC2",
		"componentType":5126,
		"count":4812,
		"byteOffset":24,
		"min":[0.0,
		0.0],
		"max":[1.0,
		1.0]
	}],
	"asset":{
		"version":"2.0",
		"generator":"Maxon Cinema 4D 2024.1.0 (#200000219)"
	},
	"scenes":[{
		"nodes":[0,
		1]
	}],
	"nodes":[{
		"name":"roll",
		"mesh":0,
		"translation":[0.12357858568429947,
		7.567006057423857e-18,
		-9.860761094857457e-34],
		"rotation":[2.4492937051703359e-16,
		0.0,
		0.0,
		-1.0],
		"scale":[1.0,
		1.0,
		1.0]
	},
	{
		"name":"varagh",
		"mesh":1,
		"translation":[0.11038930714130402,
		5.404638767242432,
		0.5307583808898926],
		"rotation":[-0.7071067690849304,
		0.0,
		0.0,
		-0.7071067690849304],
		"scale":[1.0,
		1.0,
		1.0]
	}],
	"meshes":[{
		"name":"roll",
		"primitives":[{
			"attributes":{
				"POSITION":1,
				"NORMAL":2,
				"TEXCOORD_0":3
			},
			"indices":0
		}]
	},
	{
		"name":"varagh",
		"primitives":[{
			"attributes":{
				"POSITION":5,
				"NORMAL":6,
				"TEXCOORD_0":7
			},
			"indices":4
		}]
	}],
	"bufferViews":[{
		"buffer":0,
		"byteOffset":0,
		"byteLength":15936,
		"target":34963
	},
	{
		"buffer":0,
		"byteOffset":15936,
		"byteLength":254976,
		"target":34962,
		"byteStride":32
	},
	{
		"buffer":1,
		"byteOffset":0,
		"byteLength":9624,
		"target":34963
	},
	{
		"buffer":1,
		"byteOffset":9624,
		"byteLength":153984,
		"target":34962,
		"byteStride":32
	}],
	"buffers":[{
		"uri":"data:application/octet-stream;base64,",
		"byteLength":270912
	},
	{
		"uri":"data:application/octet-stream;base64,",
		"byteLength":163608
	}]
}