{
	"scenes":[{
		"nodes":[0]
	}],
	"asset":{
		"version":"2.0",
		"generator":"Maxon Cinema 4D 2024.5.1 (#200000219)",
		"copyright":""
	},
	"nodes":[{
		"name":"Scene 0",
		"children":[1]
	},
	{
		"name":"Scene 0",
		"children":[2]
	},
	{
		"name":"Scene 0",
		"children":[3]
	},
	{
		"name":"Null",
		"translation":[-7.266830921173096,
		0.0,
		0.0],
		"rotation":[0.0,
		0.0,
		0.0,
		-1.0],
		"scale":[1.0,
		1.0,
		1.0],
		"children":[4,
		5,
		6]
	},
	{
		"name":"Cylinder",
		"mesh":0,
		"translation":[-0.08757320791482926,
		-0.13028085231781007,
		-0.30857810378074648],
		"rotation":[-0.7071067690849304,
		0.0,
		0.0,
		-0.7071067690849304],
		"scale":[1.0,
		0.9999998211860657,
		0.9999998211860657]
	},
	{
		"name":"Cylinder.1",
		"mesh":1,
		"translation":[-0.08757320791482926,
		-0.13028085231781007,
		-0.1596706062555313],
		"rotation":[-0.7071067690849304,
		0.0,
		0.0,
		-0.7071067690849304],
		"scale":[1.0,
		0.9999998211860657,
		0.9999998211860657]
	},
	{
		"name":"insta",
		"mesh":2,
		"translation":[0.036011647433042529,
		0.03683903440833092,
		0.0051674190908670429],
		"rotation":[0.0,
		0.0,
		0.0,
		-1.0],
		"scale":[1.0,
		1.0,
		1.0]
	}],
	"meshes":[{
		"name":"Cylinder",
		"primitives":[{
			"attributes":{
				"POSITION":7,
				"NORMAL":8,
				"TEXCOORD_0":9
			},
			"indices":6
		}]
	},
	{
		"name":"Cylinder.1",
		"primitives":[{
			"attributes":{
				"POSITION":11,
				"NORMAL":12,
				"TEXCOORD_0":13
			},
			"indices":10
		}]
	},
	{
		"name":"insta",
		"primitives":[{
			"attributes":{
				"POSITION":15,
				"NORMAL":16,
				"TEXCOORD_0":17
			},
			"indices":14
		}]
	}],
	"accessors":[{
		"min":[0.0],
		"bufferView":0,
		"type":"SCALAR",
		"max":[3.0],
		"componentType":5126,
		"count":4,
		"byteOffset":0
	},
	{
		"min":[-7.266830921173096,
		0.0,
		0.0],
		"bufferView":0,
		"type":"VEC3",
		"max":[0.0,
		0.0,
		0.0],
		"componentType":5126,
		"count":4,
		"byteOffset":16
	},
	{
		"min":[0.0],
		"bufferView":1,
		"type":"SCALAR",
		"max":[3.0],
		"componentType":5126,
		"count":6,
		"byteOffset":0
	},
	{
		"min":[-0.0591970793902874,
		-0.7535068392753601,
		0.0,
		-1.0],
		"bufferView":1,
		"type":"VEC4",
		"max":[0.058583617210388187,
		0.0,
		0.13842463493347169,
		1.0],
		"componentType":5126,
		"count":6,
		"byteOffset":24
	},
	{
		"min":[0.0],
		"bufferView":2,
		"type":"SCALAR",
		"max":[3.0],
		"componentType":5126,
		"count":3,
		"byteOffset":0
	},
	{
		"min":[1.0,
		1.0,
		1.0],
		"bufferView":2,
		"type":"VEC3",
		"max":[1.0,
		1.0,
		1.0],
		"componentType":5126,
		"count":3,
		"byteOffset":12
	},
	{
		"min":[0],
		"bufferView":3,
		"type":"SCALAR",
		"max":[2399],
		"componentType":5123,
		"count":2400,
		"byteOffset":0
	},
	{
		"min":[-1.067807912826538,
		-0.07362761348485947,
		-1.065700888633728],
		"bufferView":4,
		"type":"VEC3",
		"max":[1.067807912826538,
		0.07362761348485947,
		1.065700888633728],
		"componentType":5126,
		"count":2400,
		"byteOffset":0
	},
	{
		"min":[-0.9914436340332031,
		-1.0,
		-0.9895106554031372],
		"bufferView":4,
		"type":"VEC3",
		"max":[0.9914436340332031,
		1.0,
		0.9895106554031372],
		"componentType":5126,
		"count":2400,
		"byteOffset":12
	},
	{
		"min":[0.000030517578125,
		0.000030517578125],
		"bufferView":4,
		"type":"VEC2",
		"max":[1.0,
		1.0],
		"componentType":5126,
		"count":2400,
		"byteOffset":24
	},
	{
		"min":[0],
		"bufferView":5,
		"type":"SCALAR",
		"max":[2399],
		"componentType":5123,
		"count":2400,
		"byteOffset":0
	},
	{
		"min":[-0.9170252680778503,
		-0.07362761348485947,
		-0.9152157306671143],
		"bufferView":6,
		"type":"VEC3",
		"max":[0.9170252680778503,
		0.07362761348485947,
		0.9152157306671143],
		"componentType":5126,
		"count":2400,
		"byteOffset":0
	},
	{
		"min":[-0.9914436340332031,
		-1.0,
		-0.9895106554031372],
		"bufferView":6,
		"type":"VEC3",
		"max":[0.9914436340332031,
		1.0,
		0.9895106554031372],
		"componentType":5126,
		"count":2400,
		"byteOffset":12
	},
	{
		"min":[0.04148674011230469,
		0.4631805419921875],
		"bufferView":6,
		"type":"VEC2",
		"max":[0.9585113525390625,
		0.53680419921875],
		"componentType":5126,
		"count":2400,
		"byteOffset":24
	},
	{
		"min":[0],
		"bufferView":7,
		"type":"SCALAR",
		"max":[34823],
		"componentType":5123,
		"count":34824,
		"byteOffset":0
	},
	{
		"min":[-0.5808441042900086,
		-0.5831645131111145,
		-0.13871605694293977],
		"bufferView":8,
		"type":"VEC3",
		"max":[0.364774227142334,
		0.3621303141117096,
		0.057028479874134067],
		"componentType":5126,
		"count":34824,
		"byteOffset":0
	},
	{
		"min":[-1.0,
		-1.0,
		-1.0],
		"bufferView":8,
		"type":"VEC3",
		"max":[1.0,
		1.0,
		1.0],
		"componentType":5126,
		"count":34824,
		"byteOffset":12
	},
	{
		"min":[0.0,
		0.000986635684967041],
		"bufferView":8,
		"type":"VEC2",
		"max":[1.0,
		0.9990133047103882],
		"componentType":5126,
		"count":34824,
		"byteOffset":24
	}],
	"bufferViews":[{
		"buffer":0,
		"byteOffset":0,
		"byteLength":64
	},
	{
		"buffer":0,
		"byteOffset":64,
		"byteLength":120
	},
	{
		"buffer":0,
		"byteOffset":184,
		"byteLength":48
	},
	{
		"buffer":1,
		"byteOffset":0,
		"byteLength":4800,
		"target":34963
	},
	{
		"buffer":1,
		"byteOffset":4800,
		"byteLength":76800,
		"target":34962,
		"byteStride":32
	},
	{
		"buffer":2,
		"byteOffset":0,
		"byteLength":4800,
		"target":34963
	},
	{
		"buffer":2,
		"byteOffset":4800,
		"byteLength":76800,
		"target":34962,
		"byteStride":32
	},
	{
		"buffer":3,
		"byteOffset":0,
		"byteLength":69648,
		"target":34963
	},
	{
		"buffer":3,
		"byteOffset":69648,
		"byteLength":1114368,
		"target":34962,
		"byteStride":32
	}],
	"buffers":[{
		"uri":"data:application/octet-stream;base64,",
		"byteLength":232
	},
	{
		"uri":"data:application/octet-stream;base64,",
		"byteLength":81600
	},
	{
		"uri":"data:application/octet-stream;base64,",
		"byteLength":81600
	},
	{
		"uri":"data:application/octet-stream;base64,",
		"byteLength":1184016
	}],
	"animations":[{
		"samplers":[{
			"input":0,
			"interpolation":"LINEAR",
			"output":1
		},
		{
			"input":2,
			"interpolation":"LINEAR",
			"output":3
		},
		{
			"input":4,
			"interpolation":"LINEAR",
			"output":5
		}],
		"channels":[{
			"sampler":0,
			"target":{
				"node":3,
				"path":"translation"
			}
		},
		{
			"sampler":1,
			"target":{
				"node":3,
				"path":"rotation"
			}
		},
		{
			"sampler":2,
			"target":{
				"node":3,
				"path":"scale"
			}
		}]
	}]
}