{
	"asset":{
		"version":"2.0",
		"generator":"Blender Foundation Blender (stable FBX IO) 4.0.2"
	},
	"scenes":[{
		"nodes":[0]
	}],
	"nodes":[{
		"children":[1,
		2,
		3,
		4,
		5],
		"name":"Null",
		"translation":[-7.188838481903076,
		0.0,
		0.0],
		"rotation":[0.003239972284063697,
		0.03370676562190056,
		0.001178958103992045,
		0.9994258284568787],
		"scale":[1.0,
		1.0,
		1.0]
	},
	{
		"name":"Cylinder",
		"mesh":0,
		"translation":[-0.08757320791482926,
		-0.13028085231781007,
		-0.30857810378074648],
		"rotation":[-0.7071067690849304,
		0.0,
		0.0,
		-0.7071067690849304],
		"scale":[1.0,
		1.0,
		1.0]
	},
	{
		"name":"Cylinder.1",
		"mesh":1,
		"translation":[-0.08757320791482926,
		-0.13028085231781007,
		-0.1596706062555313],
		"rotation":[-0.7071067690849304,
		0.0,
		0.0,
		-0.7071067690849304],
		"scale":[1.0,
		1.0,
		1.0]
	},
	{
		"name":"Cylinder.2",
		"mesh":2,
		"translation":[0.1557723432779312,
		0.1638578474521637,
		-0.039839085191488269],
		"rotation":[-0.7071067690849304,
		0.0,
		0.0,
		-0.7071067690849304],
		"scale":[1.0,
		1.0,
		1.0]
	},
	{
		"name":"Disc",
		"mesh":3,
		"translation":[-0.08374904841184616,
		-0.09017977863550186,
		0.05017392337322235],
		"rotation":[-0.7071067690849304,
		0.0,
		0.0,
		-0.7071067690849304],
		"scale":[1.0,
		1.0,
		1.0]
	},
	{
		"name":"Sweep",
		"mesh":4,
		"translation":[-0.07202330231666565,
		-0.07367807626724243,
		-0.010334836319088936],
		"rotation":[0.001610861625522375,
		0.0033927923068404199,
		0.01030801422894001,
		0.9999397993087769],
		"scale":[1.0,
		1.0,
		1.0]
	}],
	"meshes":[{
		"name":"Cylinder",
		"primitives":[{
			"attributes":{
				"POSITION":7,
				"NORMAL":8,
				"TEXCOORD_0":9
			},
			"indices":6,
			"material":0
		}]
	},
	{
		"name":"Cylinder.1",
		"primitives":[{
			"attributes":{
				"POSITION":11,
				"NORMAL":12,
				"TEXCOORD_0":13
			},
			"indices":10,
			"material":1
		}]
	},
	{
		"name":"Cylinder.2",
		"primitives":[{
			"attributes":{
				"POSITION":15,
				"NORMAL":16,
				"TEXCOORD_0":17
			},
			"indices":14,
			"material":2
		}]
	},
	{
		"name":"Disc",
		"primitives":[{
			"attributes":{
				"POSITION":19,
				"NORMAL":20,
				"TEXCOORD_0":21
			},
			"indices":18,
			"material":2
		}]
	},
	{
		"name":"Sweep",
		"primitives":[{
			"attributes":{
				"POSITION":23,
				"NORMAL":24,
				"TEXCOORD_0":25
			},
			"indices":22,
			"material":2
		}]
	}],
	"accessors":[{
		"bufferView":0,
		"type":"SCALAR",
		"componentType":5126,
		"count":3,
		"byteOffset":0,
		"min":[0.0],
		"max":[2.4166667461395265]
	},
	{
		"bufferView":0,
		"type":"VEC3",
		"componentType":5126,
		"count":3,
		"byteOffset":12,
		"min":[-7.266830921173096,
		0.0,
		0.0],
		"max":[0.0,
		0.0,
		0.0]
	},
	{
		"bufferView":1,
		"type":"SCALAR",
		"componentType":5126,
		"count":5,
		"byteOffset":0,
		"min":[0.0],
		"max":[2.4166667461395265]
	},
	{
		"bufferView":1,
		"type":"VEC4",
		"componentType":5126,
		"count":5,
		"byteOffset":20,
		"min":[-0.0591970793902874,
		-0.7535068392753601,
		0.0,
		-1.0],
		"max":[0.05858360603451729,
		0.0,
		0.13842463493347169,
		1.0]
	},
	{
		"bufferView":2,
		"type":"SCALAR",
		"componentType":5126,
		"count":2,
		"byteOffset":0,
		"min":[0.0],
		"max":[2.4166667461395265]
	},
	{
		"bufferView":2,
		"type":"VEC3",
		"componentType":5126,
		"count":2,
		"byteOffset":8,
		"min":[1.0,
		1.0,
		1.0],
		"max":[1.0,
		1.0,
		1.0]
	},
	{
		"bufferView":3,
		"type":"SCALAR",
		"componentType":5123,
		"count":2400,
		"byteOffset":0,
		"min":[0],
		"max":[2399]
	},
	{
		"bufferView":4,
		"type":"VEC3",
		"componentType":5126,
		"count":2400,
		"byteOffset":0,
		"min":[-1.067807912826538,
		-0.07362761348485947,
		-1.065700888633728],
		"max":[1.067807912826538,
		0.07362761348485947,
		1.065700888633728]
	},
	{
		"bufferView":4,
		"type":"VEC3",
		"componentType":5126,
		"count":2400,
		"byteOffset":12,
		"min":[-0.9914441108703613,
		-1.0,
		-0.9895113110542297],
		"max":[0.9914441108703613,
		1.0,
		0.9895113110542297]
	},
	{
		"bufferView":4,
		"type":"VEC2",
		"componentType":5126,
		"count":2400,
		"byteOffset":24,
		"min":[0.0,
		0.0],
		"max":[1.0,
		1.0]
	},
	{
		"bufferView":5,
		"type":"SCALAR",
		"componentType":5123,
		"count":2400,
		"byteOffset":0,
		"min":[0],
		"max":[2399]
	},
	{
		"bufferView":6,
		"type":"VEC3",
		"componentType":5126,
		"count":2400,
		"byteOffset":0,
		"min":[-0.9170252680778503,
		-0.07362761348485947,
		-0.9152157306671143],
		"max":[0.9170252680778503,
		0.07362761348485947,
		0.9152157306671143]
	},
	{
		"bufferView":6,
		"type":"VEC3",
		"componentType":5126,
		"count":2400,
		"byteOffset":12,
		"min":[-0.9914441108703613,
		-1.0,
		-0.9895113110542297],
		"max":[0.9914441108703613,
		1.0,
		0.9895113110542297]
	},
	{
		"bufferView":6,
		"type":"VEC2",
		"componentType":5126,
		"count":2400,
		"byteOffset":24,
		"min":[0.0,
		0.0],
		"max":[1.0,
		1.0]
	},
	{
		"bufferView":7,
		"type":"SCALAR",
		"componentType":5123,
		"count":1056,
		"byteOffset":0,
		"min":[0],
		"max":[1055]
	},
	{
		"bufferView":8,
		"type":"VEC3",
		"componentType":5126,
		"count":1056,
		"byteOffset":0,
		"min":[-0.06479004770517349,
		-0.0937095582485199,
		-0.06479004770517349],
		"max":[0.06479004770517349,
		0.0937095582485199,
		0.06479004770517349]
	},
	{
		"bufferView":8,
		"type":"VEC3",
		"componentType":5126,
		"count":1056,
		"byteOffset":12,
		"min":[-1.0,
		-1.0,
		-1.0],
		"max":[1.0,
		1.0,
		1.0]
	},
	{
		"bufferView":8,
		"type":"VEC2",
		"componentType":5126,
		"count":1056,
		"byteOffset":24,
		"min":[0.0,
		0.0],
		"max":[1.0,
		1.0]
	},
	{
		"bufferView":9,
		"type":"SCALAR",
		"componentType":5123,
		"count":4800,
		"byteOffset":0,
		"min":[0],
		"max":[4799]
	},
	{
		"bufferView":10,
		"type":"VEC3",
		"componentType":5126,
		"count":4800,
		"byteOffset":0,
		"min":[-0.24255234003067017,
		-0.1687999963760376,
		-0.24207372963428498],
		"max":[0.24255234003067017,
		0.0,
		0.24207372963428498]
	},
	{
		"bufferView":10,
		"type":"VEC3",
		"componentType":5126,
		"count":4800,
		"byteOffset":12,
		"min":[-0.9916085600852966,
		-0.9918839931488037,
		-0.9909575581550598],
		"max":[0.9916085600852966,
		0.9918839931488037,
		0.9909575581550598]
	},
	{
		"bufferView":10,
		"type":"VEC2",
		"componentType":5126,
		"count":4800,
		"byteOffset":24,
		"min":[0.0,
		0.000986635684967041],
		"max":[1.0,
		0.9990133047103882]
	},
	{
		"bufferView":11,
		"type":"SCALAR",
		"componentType":5123,
		"count":31104,
		"byteOffset":0,
		"min":[0],
		"max":[31103]
	},
	{
		"bufferView":12,
		"type":"VEC3",
		"componentType":5126,
		"count":31104,
		"byteOffset":0,
		"min":[-0.46708306670188906,
		-0.4670829772949219,
		-0.06850462406873703],
		"max":[0.46708306670188906,
		0.4670829772949219,
		0.06850462406873703]
	},
	{
		"bufferView":12,
		"type":"VEC3",
		"componentType":5126,
		"count":31104,
		"byteOffset":12,
		"min":[-0.9998921751976013,
		-0.9998921751976013,
		-1.0],
		"max":[0.9998921751976013,
		0.9998921751976013,
		1.0]
	},
	{
		"bufferView":12,
		"type":"VEC2",
		"componentType":5126,
		"count":31104,
		"byteOffset":24,
		"min":[0.0,
		0.0],
		"max":[1.0,
		1.0]
	}],
	"bufferViews":[{
		"buffer":0,
		"byteOffset":0,
		"byteLength":48
	},
	{
		"buffer":0,
		"byteOffset":48,
		"byteLength":100
	},
	{
		"buffer":0,
		"byteOffset":148,
		"byteLength":32
	},
	{
		"buffer":1,
		"byteOffset":0,
		"byteLength":4800,
		"target":34963
	},
	{
		"buffer":1,
		"byteOffset":4800,
		"byteLength":76800,
		"target":34962,
		"byteStride":32
	},
	{
		"buffer":2,
		"byteOffset":0,
		"byteLength":4800,
		"target":34963
	},
	{
		"buffer":2,
		"byteOffset":4800,
		"byteLength":76800,
		"target":34962,
		"byteStride":32
	},
	{
		"buffer":3,
		"byteOffset":0,
		"byteLength":2112,
		"target":34963
	},
	{
		"buffer":3,
		"byteOffset":2112,
		"byteLength":33792,
		"target":34962,
		"byteStride":32
	},
	{
		"buffer":4,
		"byteOffset":0,
		"byteLength":9600,
		"target":34963
	},
	{
		"buffer":4,
		"byteOffset":9600,
		"byteLength":153600,
		"target":34962,
		"byteStride":32
	},
	{
		"buffer":5,
		"byteOffset":0,
		"byteLength":62208,
		"target":34963
	},
	{
		"buffer":5,
		"byteOffset":62208,
		"byteLength":995328,
		"target":34962,
		"byteStride":32
	}],
	"buffers":[{
		"uri":"data:application/octet-stream;base64,",
		"byteLength":180
	},
	{
		"uri":"data:application/octet-stream;base64,",
		"byteLength":81600
	},
	{
		"uri":"data:application/octet-stream;base64,",
		"byteLength":81600
	},
	{
		"uri":"data:application/octet-stream;base64,",
		"byteLength":35904
	},
	{
		"uri":"data:application/octet-stream;base64,",
		"byteLength":163200
	},
	{
		"uri":"data:application/octet-stream;base64,",
		"byteLength":1057536
	}],
	"materials":[{
		"alphaMode":"OPAQUE",
		"pbrMetallicRoughness":{
			"baseColorFactor":[0.9928057553956835,
			0.32855442264893117,
			0.08235294117647058,
			1.0],
			"metallicFactor":0.0,
			"roughnessFactor":0.5
		},
		"emissiveFactor":[0.0,
		0.0,
		0.0],
		"doubleSided":false,
		"name":"Mat.1"
	},
	{
		"alphaMode":"OPAQUE",
		"pbrMetallicRoughness":{
			"baseColorFactor":[0.8,
			0.8,
			0.8,
			1.0],
			"metallicFactor":1.0,
			"roughnessFactor":0.3
		},
		"emissiveFactor":[0.0,
		0.0,
		0.0],
		"doubleSided":false,
		"name":"PBR"
	},
	{
		"alphaMode":"OPAQUE",
		"pbrMetallicRoughness":{
			"baseColorFactor":[0.8,
			0.14399999999999997,
			0.7562666666666663,
			1.0],
			"metallicFactor":0.0,
			"roughnessFactor":0.5
		},
		"emissiveFactor":[0.0,
		0.0,
		0.0],
		"doubleSided":false,
		"name":"Mat"
	}],
	"animations":[{
		"samplers":[{
			"input":0,
			"interpolation":"LINEAR",
			"output":1
		},
		{
			"input":2,
			"interpolation":"LINEAR",
			"output":3
		},
		{
			"input":4,
			"interpolation":"LINEAR",
			"output":5
		}],
		"channels":[{
			"sampler":0,
			"target":{
				"node":0,
				"path":"translation"
			}
		},
		{
			"sampler":1,
			"target":{
				"node":0,
				"path":"rotation"
			}
		},
		{
			"sampler":2,
			"target":{
				"node":0,
				"path":"scale"
			}
		}]
	}]
}