{
	"accessors":[{
		"min":[0.0],
		"bufferView":0,
		"type":"SCALAR",
		"max":[3.0],
		"componentType":5126,
		"count":4,
		"byteOffset":0
	},
	{
		"min":[-7.266830921173096,
		0.0,
		0.0],
		"bufferView":0,
		"type":"VEC3",
		"max":[0.0,
		0.0,
		0.0],
		"componentType":5126,
		"count":4,
		"byteOffset":16
	},
	{
		"min":[0.0],
		"bufferView":1,
		"type":"SCALAR",
		"max":[3.0],
		"componentType":5126,
		"count":6,
		"byteOffset":0
	},
	{
		"min":[-0.0591970793902874,
		-0.7535068392753601,
		0.0,
		-1.0],
		"bufferView":1,
		"type":"VEC4",
		"max":[0.05858360975980759,
		0.0,
		0.13842463493347169,
		1.0],
		"componentType":5126,
		"count":6,
		"byteOffset":24
	},
	{
		"min":[0.0],
		"bufferView":2,
		"type":"SCALAR",
		"max":[3.0],
		"componentType":5126,
		"count":3,
		"byteOffset":0
	},
	{
		"min":[1.0,
		1.0,
		1.0],
		"bufferView":2,
		"type":"VEC3",
		"max":[1.0,
		1.0,
		1.0],
		"componentType":5126,
		"count":3,
		"byteOffset":12
	},
	{
		"min":[0],
		"bufferView":3,
		"type":"SCALAR",
		"max":[2399],
		"componentType":5123,
		"count":2400,
		"byteOffset":0
	},
	{
		"min":[-1.067807912826538,
		-0.07362761348485947,
		-1.065700888633728],
		"bufferView":4,
		"type":"VEC3",
		"max":[1.067807912826538,
		0.07362761348485947,
		1.065700888633728],
		"componentType":5126,
		"count":2400,
		"byteOffset":0
	},
	{
		"min":[-0.9914435148239136,
		-1.0,
		-0.9895106554031372],
		"bufferView":4,
		"type":"VEC3",
		"max":[0.9914435148239136,
		1.0,
		0.9895106554031372],
		"componentType":5126,
		"count":2400,
		"byteOffset":12
	},
	{
		"min":[0.000030517578125,
		0.000030517578125],
		"bufferView":4,
		"type":"VEC2",
		"max":[1.0,
		1.0],
		"componentType":5126,
		"count":2400,
		"byteOffset":24
	},
	{
		"min":[0],
		"bufferView":5,
		"type":"SCALAR",
		"max":[2399],
		"componentType":5123,
		"count":2400,
		"byteOffset":0
	},
	{
		"min":[-0.9170252680778503,
		-0.07362761348485947,
		-0.9152157306671143],
		"bufferView":6,
		"type":"VEC3",
		"max":[0.9170252680778503,
		0.07362761348485947,
		0.9152157306671143],
		"componentType":5126,
		"count":2400,
		"byteOffset":0
	},
	{
		"min":[-0.9914435148239136,
		-1.0,
		-0.9895106554031372],
		"bufferView":6,
		"type":"VEC3",
		"max":[0.9914435148239136,
		1.0,
		0.9895106554031372],
		"componentType":5126,
		"count":2400,
		"byteOffset":12
	},
	{
		"min":[0.04148736596107483,
		0.46318620443344118],
		"bufferView":6,
		"type":"VEC2",
		"max":[0.9585126638412476,
		0.5368137359619141],
		"componentType":5126,
		"count":2400,
		"byteOffset":24
	},
	{
		"min":[0],
		"bufferView":7,
		"type":"SCALAR",
		"max":[1055],
		"componentType":5123,
		"count":1056,
		"byteOffset":0
	},
	{
		"min":[-0.06479004770517349,
		-0.0937095582485199,
		-0.06479004770517349],
		"bufferView":8,
		"type":"VEC3",
		"max":[0.06479004770517349,
		0.0937095582485199,
		0.06479004770517349],
		"componentType":5126,
		"count":1056,
		"byteOffset":0
	},
	{
		"min":[-1.0,
		-1.0,
		-1.0],
		"bufferView":8,
		"type":"VEC3",
		"max":[1.0,
		1.0,
		1.0],
		"componentType":5126,
		"count":1056,
		"byteOffset":12
	},
	{
		"min":[0.46760496497154238,
		0.45314520597457888],
		"bufferView":8,
		"type":"VEC2",
		"max":[0.5323950052261353,
		0.5468547344207764],
		"componentType":5126,
		"count":1056,
		"byteOffset":24
	},
	{
		"min":[0],
		"bufferView":9,
		"type":"SCALAR",
		"max":[4799],
		"componentType":5123,
		"count":4800,
		"byteOffset":0
	},
	{
		"min":[-0.24255234003067017,
		-0.1687999963760376,
		-0.24207372963428498],
		"bufferView":10,
		"type":"VEC3",
		"max":[0.24255234003067017,
		0.0,
		0.24207372963428498],
		"componentType":5126,
		"count":4800,
		"byteOffset":0
	},
	{
		"min":[-0.9916085600852966,
		-0.9918883442878723,
		-0.9909583330154419],
		"bufferView":10,
		"type":"VEC3",
		"max":[0.9916085600852966,
		0.9918883442878723,
		0.9909583330154419],
		"componentType":5126,
		"count":4800,
		"byteOffset":12
	},
	{
		"min":[0.3787238299846649,
		0.5],
		"bufferView":10,
		"type":"VEC2",
		"max":[0.6212761402130127,
		0.584399938583374],
		"componentType":5126,
		"count":4800,
		"byteOffset":24
	},
	{
		"min":[0],
		"bufferView":11,
		"type":"SCALAR",
		"max":[31103],
		"componentType":5123,
		"count":31104,
		"byteOffset":0
	},
	{
		"min":[-0.46708306670188906,
		-0.4670829772949219,
		-0.06850462406873703],
		"bufferView":12,
		"type":"VEC3",
		"max":[0.46708306670188906,
		0.4670829772949219,
		0.06850462406873703],
		"componentType":5126,
		"count":31104,
		"byteOffset":0
	},
	{
		"min":[-0.9998926520347595,
		-0.9998926520347595,
		-1.0],
		"bufferView":12,
		"type":"VEC3",
		"max":[0.9998926520347595,
		0.9998926520347595,
		1.0],
		"componentType":5126,
		"count":31104,
		"byteOffset":12
	},
	{
		"min":[0.2664584517478943,
		0.26645851135253909],
		"bufferView":12,
		"type":"VEC2",
		"max":[0.7335415482521057,
		0.7335414886474609],
		"componentType":5126,
		"count":31104,
		"byteOffset":24
	}],
	"asset":{
		"version":"2.0",
		"generator":"Maxon Cinema 4D 2024.5.1 (#200000219)"
	},
	"scenes":[{
		"nodes":[0]
	}],
	"nodes":[{
		"name":"Scene 0",
		"children":[1]
	},
	{
		"name":"Null",
		"translation":[-7.266830921173096,
		0.0,
		0.0],
		"rotation":[0.0,
		0.0,
		0.0,
		-1.0],
		"scale":[1.0,
		1.0,
		1.0],
		"children":[2,
		3,
		4,
		5,
		6]
	},
	{
		"name":"Cylinder",
		"mesh":0,
		"translation":[-0.08757320791482926,
		-0.13028085231781007,
		-0.30857810378074648],
		"rotation":[-0.7071067690849304,
		0.0,
		0.0,
		-0.7071067690849304],
		"scale":[1.0,
		0.9999999403953552,
		0.9999999403953552]
	},
	{
		"name":"Cylinder.1",
		"mesh":1,
		"translation":[-0.08757320791482926,
		-0.13028085231781007,
		-0.1596706062555313],
		"rotation":[-0.7071067690849304,
		0.0,
		0.0,
		-0.7071067690849304],
		"scale":[1.0,
		0.9999999403953552,
		0.9999999403953552]
	},
	{
		"name":"Cylinder.2",
		"mesh":2,
		"translation":[0.1557723432779312,
		0.1638578474521637,
		-0.039839085191488269],
		"rotation":[-0.7071067690849304,
		0.0,
		0.0,
		-0.7071067690849304],
		"scale":[1.0,
		0.9999999403953552,
		0.9999999403953552]
	},
	{
		"name":"Disc",
		"mesh":3,
		"translation":[-0.08374904841184616,
		-0.09017977863550186,
		0.05017392337322235],
		"rotation":[-0.7071067690849304,
		0.0,
		0.0,
		-0.7071067690849304],
		"scale":[1.0,
		0.9999999403953552,
		0.9999999403953552]
	},
	{
		"name":"Sweep",
		"mesh":4,
		"translation":[-0.07202330231666565,
		-0.07367807626724243,
		-0.010334836319088936],
		"rotation":[0.001610861625522375,
		0.0033927923068404199,
		0.01030801422894001,
		0.9999397993087769],
		"scale":[1.0,
		1.0,
		1.0]
	}],
	"meshes":[{
		"name":"Cylinder",
		"primitives":[{
			"attributes":{
				"POSITION":7,
				"NORMAL":8,
				"TEXCOORD_0":9
			},
			"indices":6,
			"material":0
		}]
	},
	{
		"name":"Cylinder.1",
		"primitives":[{
			"attributes":{
				"POSITION":11,
				"NORMAL":12,
				"TEXCOORD_0":13
			},
			"indices":10,
			"material":1
		}]
	},
	{
		"name":"Cylinder.2",
		"primitives":[{
			"attributes":{
				"POSITION":15,
				"NORMAL":16,
				"TEXCOORD_0":17
			},
			"indices":14,
			"material":2
		}]
	},
	{
		"name":"Disc",
		"primitives":[{
			"attributes":{
				"POSITION":19,
				"NORMAL":20,
				"TEXCOORD_0":21
			},
			"indices":18,
			"material":2
		}]
	},
	{
		"name":"Sweep",
		"primitives":[{
			"attributes":{
				"POSITION":23,
				"NORMAL":24,
				"TEXCOORD_0":25
			},
			"indices":22,
			"material":2
		}]
	}],
	"bufferViews":[{
		"buffer":0,
		"byteOffset":0,
		"byteLength":64
	},
	{
		"buffer":0,
		"byteOffset":64,
		"byteLength":120
	},
	{
		"buffer":0,
		"byteOffset":184,
		"byteLength":48
	},
	{
		"buffer":1,
		"byteOffset":0,
		"byteLength":4800,
		"target":34963
	},
	{
		"buffer":1,
		"byteOffset":4800,
		"byteLength":76800,
		"target":34962,
		"byteStride":32
	},
	{
		"buffer":2,
		"byteOffset":0,
		"byteLength":4800,
		"target":34963
	},
	{
		"buffer":2,
		"byteOffset":4800,
		"byteLength":76800,
		"target":34962,
		"byteStride":32
	},
	{
		"buffer":3,
		"byteOffset":0,
		"byteLength":2112,
		"target":34963
	},
	{
		"buffer":3,
		"byteOffset":2112,
		"byteLength":33792,
		"target":34962,
		"byteStride":32
	},
	{
		"buffer":4,
		"byteOffset":0,
		"byteLength":9600,
		"target":34963
	},
	{
		"buffer":4,
		"byteOffset":9600,
		"byteLength":153600,
		"target":34962,
		"byteStride":32
	},
	{
		"buffer":5,
		"byteOffset":0,
		"byteLength":62208,
		"target":34963
	},
	{
		"buffer":5,
		"byteOffset":62208,
		"byteLength":995328,
		"target":34962,
		"byteStride":32
	}],
	"buffers":[{
		"uri":"data:application/octet-stream;base64,",
		"byteLength":232
	},
	{
		"uri":"data:application/octet-stream;base64,",
		"byteLength":81600
	},
	{
		"uri":"data:application/octet-stream;base64,",
		"byteLength":81600
	},
	{
		"uri":"data:application/octet-stream;base64,",
		"byteLength":35904
	},
	{
		"uri":"data:application/octet-stream;base64,",
		"byteLength":163200
	},
	{
		"uri":"data:application/octet-stream;base64,",
		"byteLength":1057536
	}],
	"materials":[{
		"pbrMetallicRoughness":{
			"baseColorFactor":[0.8,
			0.8,
			0.15999999999999998,
			1.0],
			"metallicFactor":0.0,
			"roughnessFactor":0.5
		},
		"emissiveFactor":[0.0,
		0.0,
		0.0],
		"alphaMode":"OPAQUE",
		"doubleSided":false,
		"name":"Mat.1"
	},
	{
		"pbrMetallicRoughness":{
			"baseColorFactor":[0.8,
			0.8,
			0.8,
			1.0],
			"metallicFactor":0.0,
			"roughnessFactor":0.5
		},
		"emissiveFactor":[0.0,
		0.0,
		0.0],
		"alphaMode":"OPAQUE",
		"doubleSided":false,
		"name":"Mat"
	},
	{
		"pbrMetallicRoughness":{
			"baseColorFactor":[0.8,
			0.8,
			0.8,
			1.0],
			"metallicFactor":0.0,
			"roughnessFactor":0.5
		},
		"emissiveFactor":[0.0,
		0.0,
		0.0],
		"alphaMode":"OPAQUE",
		"doubleSided":false,
		"name":"Mat"
	}],
	"animations":[{
		"samplers":[{
			"input":0,
			"interpolation":"LINEAR",
			"output":1
		},
		{
			"input":2,
			"interpolation":"LINEAR",
			"output":3
		},
		{
			"input":4,
			"interpolation":"LINEAR",
			"output":5
		}],
		"channels":[{
			"sampler":0,
			"target":{
				"node":1,
				"path":"translation"
			}
		},
		{
			"sampler":1,
			"target":{
				"node":1,
				"path":"rotation"
			}
		},
		{
			"sampler":2,
			"target":{
				"node":1,
				"path":"scale"
			}
		}]
	}]
}