{
	"asset":{
		"version":"2.0",
		"generator":"Maxon Cinema 4D 2024.5.1 (#200000219)",
		"copyright":""
	},
	"scenes":[{
		"nodes":[0]
	}],
	"nodes":[{
		"name":"Scene 0",
		"children":[1]
	},
	{
		"name":"Scene 0",
		"children":[2]
	},
	{
		"name":"Null",
		"translation":[-7.266830921173096,
		0.0,
		0.0],
		"rotation":[0.0,
		0.0,
		0.0,
		-1.0],
		"scale":[1.0,
		1.0,
		1.0],
		"children":[3,
		4,
		5]
	},
	{
		"name":"Cylinder",
		"mesh":0,
		"translation":[-0.08757320791482926,
		-0.13028085231781007,
		-0.30857810378074648],
		"rotation":[-0.7071067690849304,
		0.0,
		0.0,
		-0.7071067690849304],
		"scale":[1.0,
		0.9999998807907105,
		0.9999998807907105]
	},
	{
		"name":"Cylinder.1",
		"mesh":1,
		"translation":[-0.08757320791482926,
		-0.13028085231781007,
		-0.1596706062555313],
		"rotation":[-0.7071067690849304,
		0.0,
		0.0,
		-0.7071067690849304],
		"scale":[1.0,
		0.9999998807907105,
		0.9999998807907105]
	},
	{
		"name":"insta",
		"mesh":2,
		"translation":[0.036011647433042529,
		0.03683903440833092,
		0.0051674190908670429],
		"rotation":[0.0,
		0.0,
		0.0,
		-1.0],
		"scale":[1.0,
		1.0,
		1.0]
	}],
	"meshes":[{
		"name":"Cylinder",
		"primitives":[{
			"attributes":{
				"POSITION":7,
				"NORMAL":8,
				"TEXCOORD_0":9
			},
			"indices":6,
			"material":0
		}]
	},
	{
		"name":"Cylinder.1",
		"primitives":[{
			"attributes":{
				"POSITION":11,
				"NORMAL":12,
				"TEXCOORD_0":13
			},
			"indices":10,
			"material":1
		}]
	},
	{
		"name":"insta",
		"primitives":[{
			"attributes":{
				"POSITION":15,
				"NORMAL":16,
				"TEXCOORD_0":17
			},
			"indices":14,
			"material":2
		}]
	}],
	"accessors":[{
		"bufferView":0,
		"type":"SCALAR",
		"componentType":5126,
		"count":4,
		"byteOffset":0,
		"min":[0.0],
		"max":[3.0]
	},
	{
		"bufferView":0,
		"type":"VEC3",
		"componentType":5126,
		"count":4,
		"byteOffset":16,
		"min":[-7.266830921173096,
		0.0,
		0.0],
		"max":[0.0,
		0.0,
		0.0]
	},
	{
		"bufferView":1,
		"type":"SCALAR",
		"componentType":5126,
		"count":6,
		"byteOffset":0,
		"min":[0.0],
		"max":[3.0]
	},
	{
		"bufferView":1,
		"type":"VEC4",
		"componentType":5126,
		"count":6,
		"byteOffset":24,
		"min":[-0.0591970793902874,
		-0.7535068392753601,
		0.0,
		-1.0],
		"max":[0.058583613485097888,
		0.0,
		0.13842463493347169,
		1.0]
	},
	{
		"bufferView":2,
		"type":"SCALAR",
		"componentType":5126,
		"count":3,
		"byteOffset":0,
		"min":[0.0],
		"max":[3.0]
	},
	{
		"bufferView":2,
		"type":"VEC3",
		"componentType":5126,
		"count":3,
		"byteOffset":12,
		"min":[1.0,
		1.0,
		1.0],
		"max":[1.0,
		1.0,
		1.0]
	},
	{
		"bufferView":3,
		"type":"SCALAR",
		"componentType":5123,
		"count":2400,
		"byteOffset":0,
		"min":[0],
		"max":[2399]
	},
	{
		"bufferView":4,
		"type":"VEC3",
		"componentType":5126,
		"count":2400,
		"byteOffset":0,
		"min":[-1.067807912826538,
		-0.07362761348485947,
		-1.065700888633728],
		"max":[1.067807912826538,
		0.07362761348485947,
		1.065700888633728]
	},
	{
		"bufferView":4,
		"type":"VEC3",
		"componentType":5126,
		"count":2400,
		"byteOffset":12,
		"min":[-0.9914436340332031,
		-1.0,
		-0.9895106554031372],
		"max":[0.9914436340332031,
		1.0,
		0.9895106554031372]
	},
	{
		"bufferView":4,
		"type":"VEC2",
		"componentType":5126,
		"count":2400,
		"byteOffset":24,
		"min":[0.000030517578125,
		0.000030517578125],
		"max":[1.0,
		1.0]
	},
	{
		"bufferView":5,
		"type":"SCALAR",
		"componentType":5123,
		"count":2400,
		"byteOffset":0,
		"min":[0],
		"max":[2399]
	},
	{
		"bufferView":6,
		"type":"VEC3",
		"componentType":5126,
		"count":2400,
		"byteOffset":0,
		"min":[-0.9170252680778503,
		-0.07362761348485947,
		-0.9152157306671143],
		"max":[0.9170252680778503,
		0.07362761348485947,
		0.9152157306671143]
	},
	{
		"bufferView":6,
		"type":"VEC3",
		"componentType":5126,
		"count":2400,
		"byteOffset":12,
		"min":[-0.9914436340332031,
		-1.0,
		-0.9895106554031372],
		"max":[0.9914436340332031,
		1.0,
		0.9895106554031372]
	},
	{
		"bufferView":6,
		"type":"VEC2",
		"componentType":5126,
		"count":2400,
		"byteOffset":24,
		"min":[0.04148674011230469,
		0.4631805419921875],
		"max":[0.9585113525390625,
		0.53680419921875]
	},
	{
		"bufferView":7,
		"type":"SCALAR",
		"componentType":5123,
		"count":36960,
		"byteOffset":0,
		"min":[0],
		"max":[36959]
	},
	{
		"bufferView":8,
		"type":"VEC3",
		"componentType":5126,
		"count":36960,
		"byteOffset":0,
		"min":[-0.5808441042900086,
		-0.5831645131111145,
		-0.13871605694293977],
		"max":[0.364774227142334,
		0.3621303141117096,
		0.057028479874134067]
	},
	{
		"bufferView":8,
		"type":"VEC3",
		"componentType":5126,
		"count":36960,
		"byteOffset":12,
		"min":[-1.0,
		-1.0,
		-1.0],
		"max":[1.0,
		1.0,
		1.0]
	},
	{
		"bufferView":8,
		"type":"VEC2",
		"componentType":5126,
		"count":36960,
		"byteOffset":24,
		"min":[0.26645660400390627,
		0.26645660400390627],
		"max":[0.7335357666015625,
		0.7335357666015625]
	}],
	"bufferViews":[{
		"buffer":0,
		"byteOffset":0,
		"byteLength":64
	},
	{
		"buffer":0,
		"byteOffset":64,
		"byteLength":120
	},
	{
		"buffer":0,
		"byteOffset":184,
		"byteLength":48
	},
	{
		"buffer":1,
		"byteOffset":0,
		"byteLength":4800,
		"target":34963
	},
	{
		"buffer":1,
		"byteOffset":4800,
		"byteLength":76800,
		"target":34962,
		"byteStride":32
	},
	{
		"buffer":2,
		"byteOffset":0,
		"byteLength":4800,
		"target":34963
	},
	{
		"buffer":2,
		"byteOffset":4800,
		"byteLength":76800,
		"target":34962,
		"byteStride":32
	},
	{
		"buffer":3,
		"byteOffset":0,
		"byteLength":73920,
		"target":34963
	},
	{
		"buffer":3,
		"byteOffset":73920,
		"byteLength":1182720,
		"target":34962,
		"byteStride":32
	}],
	"buffers":[{
		"uri":"data:application/octet-stream;base64,",
		"byteLength":232
	},
	{
		"uri":"data:application/octet-stream;base64,",
		"byteLength":81600
	},
	{
		"uri":"data:application/octet-stream;base64,",
		"byteLength":81600
	},
	{
		"uri":"data:application/octet-stream;base64,",
		"byteLength":1256640
	}],
	"materials":[{
		"pbrMetallicRoughness":{
			"baseColorFactor":[0.8,
			0.8,
			0.15999999999999998,
			1.0],
			"metallicFactor":0.0,
			"roughnessFactor":0.5
		},
		"emissiveFactor":[0.0,
		0.0,
		0.0],
		"alphaMode":"OPAQUE",
		"doubleSided":false,
		"name":"Mat.1"
	},
	{
		"pbrMetallicRoughness":{
			"baseColorFactor":[0.8,
			0.8,
			0.8,
			1.0],
			"metallicFactor":0.0,
			"roughnessFactor":0.5
		},
		"emissiveFactor":[0.0,
		0.0,
		0.0],
		"alphaMode":"OPAQUE",
		"doubleSided":false,
		"name":"Mat"
	},
	{
		"pbrMetallicRoughness":{
			"baseColorFactor":[0.8,
			0.8,
			0.8,
			1.0],
			"metallicFactor":0.0,
			"roughnessFactor":0.5
		},
		"emissiveFactor":[0.0,
		0.0,
		0.0],
		"alphaMode":"OPAQUE",
		"doubleSided":false,
		"name":"Mat"
	}],
	"animations":[{
		"samplers":[{
			"input":0,
			"output":1,
			"interpolation":"LINEAR"
		},
		{
			"input":2,
			"output":3,
			"interpolation":"LINEAR"
		},
		{
			"input":4,
			"output":5,
			"interpolation":"LINEAR"
		}],
		"channels":[{
			"sampler":0,
			"target":{
				"node":2,
				"path":"translation"
			}
		},
		{
			"sampler":1,
			"target":{
				"node":2,
				"path":"rotation"
			}
		},
		{
			"sampler":2,
			"target":{
				"node":2,
				"path":"scale"
			}
		}]
	}]
}